<?xml version="1.0" encoding="UTF-8" standalone="no"?>
<!-- Created with Inkscape (http://www.inkscape.org/) -->

<svg
   width="210mm"
   height="297mm"
   viewBox="0 0 210 297"
   version="1.1"
   id="svg4876"
   inkscape:version="1.2.2 (732a01da63, 2022-12-09, custom)"
   sodipodi:docname="george.tree.svg"
   xmlns:inkscape="http://www.inkscape.org/namespaces/inkscape"
   xmlns:sodipodi="http://sodipodi.sourceforge.net/DTD/sodipodi-0.dtd"
   xmlns="http://www.w3.org/2000/svg"
   xmlns:svg="http://www.w3.org/2000/svg">
  <sodipodi:namedview
     id="namedview4878"
     pagecolor="#ffffff"
     bordercolor="#000000"
     borderopacity="0.25"
     inkscape:showpageshadow="2"
     inkscape:pageopacity="0.0"
     inkscape:pagecheckerboard="0"
     inkscape:deskcolor="#d1d1d1"
     inkscape:document-units="mm"
     showgrid="false"
     inkscape:zoom="0.5946522"
     inkscape:cx="396.87064"
     inkscape:cy="480.11257"
     inkscape:window-width="1206"
     inkscape:window-height="960"
     inkscape:window-x="0"
     inkscape:window-y="0"
     inkscape:window-maximized="1"
     inkscape:current-layer="layer1" />
  <defs
     id="defs4873" />
  <g
     inkscape:label="Layer 1"
     inkscape:groupmode="layer"
     id="layer1">
    <path
       style="fill:#552200;stroke-width:0.264583"
       d="m 206.11699,142.4313 c 0.0822,2.41342 0.87074,4.71878 1.16385,7.09858 0.2288,1.8577 0.11173,3.75213 0.40679,5.60046 0.2962,1.85545 1.11045,3.60795 1.36048,5.47019 0.20682,1.54042 -0.14653,3.11542 0,4.66274 0.11184,1.18097 0.47009,2.32676 0.77057,3.47433 0.17326,0.66169 0.64566,1.26271 0.6489,1.9467 0.004,0.76348 -0.50372,1.44923 -0.62924,2.20233 -0.29662,1.77971 0,3.84354 0,5.66314 0,0.81015 0.23857,6.32909 -0.15976,6.72743"
       id="path6047" />
    <g
       id="g6359">
      <g
         id="g6349"
         transform="matrix(1,0,0,0.83350105,6.2001987,41.972347)">
        <g
           id="g6341">
          <g
             id="g5070">
            <path
               style="fill:#552200;stroke-width:0.264583"
               d="m 79.049162,164.7385 c -10.716696,62.51202 -11.624913,63.19042 -11.624913,63.19042 l 58.981161,1.38014 -18.42116,-64.12567"
               id="path4934" />
            <path
               style="fill:#552200;stroke-width:0.264583"
               d="m 108.23619,165.2178 c -1.14787,-19.47072 -1.14787,-19.47072 -1.14787,-19.47072 l -27.511925,-0.97212 -0.137647,20.47725 0.71035,-23.3506 -18.004543,-12.24678 0.280207,0.0234 -5.473872,6.60207 -1.633313,-2.42477 5.778659,-5.93966 -6.251816,-6.54431 4.474713,-7.40583 2.587,2.66197 -2.991334,3.38092 4.044569,4.35304 3.480469,-4.10971 2.623871,3.11301 -2.499744,3.7533 10.885067,7.63196 2.947093,1.74147 -0.153622,-27.4087 -11.107513,-5.94703 -4.18959,7.93921 -4.20311,-2.82788 5.036357,-6.92407 -6.615594,-5.124843 -5.456666,7.067853 -4.974907,-3.20271 5.675424,-7.305057 -2.618955,-4.027363 3.399356,-3.286291 3.024518,4.421867 5.421027,3.846706 4.437843,-5.025295 2.241659,3.1892 -3.475554,4.430469 13.158679,8.117404 1.983573,-5.384155 11.595418,1.662805 -3.388297,18.86115 15.45318,10.88506 8.27103,-19.79639 -8.6262,-3.08228 3.51734,-5.5894 7.97238,4.30266 3.0491,-5.75654 -14.18242,-8.886749 2.11999,-4.141658 13.28895,7.400912 5.496,4.727882 5.35835,-15.612949 5.00931,2.626329 -8.22924,16.662493 24.62628,-11.445479 2.75906,2.266238 -3.21992,3.7914 -26.71555,11.761331 -6.20757,5.57956 -6.73973,8.22556 -6.19651,10.18209 0.36501,-1.41455 -1.02743,0.6108 v 0 l -6.603302,16.38102 c 0,0 -0.5174,0.92788 -0.965977,0.2925 -0.448577,-0.63538 -3.21378,-9.88591 -0.448577,0.52846 2.765206,10.41437 2.604206,9.78513 4.215396,10.41437 1.61119,0.62924 -0.63538,-2.97782 3.40059,0.31462 4.03596,3.29243 2.31048,4.42555 2.31048,4.42555 z"
               id="path4936" />
            <path
               style="fill:#d40000;stroke-width:0.264583"
               d="m 106.4259,132.41635 c -4.6013,14.9788 -4.6013,14.9788 -4.6013,14.9788"
               id="path4938" />
            <path
               style="fill:#552200;stroke-width:0.264583"
               d="m 108.03832,133.35775 -4.26702,12.49011 4.60745,20.36664 -28.996533,-0.80621 1.168757,-20.72058 22.599696,0.37729 h 0.66734"
               id="path4940" />
          </g>
        </g>
      </g>
      <path
         style="fill:#008000;stroke-width:0.236757"
         d="m 91.781585,124.07396 -29.897374,-3.81032 -21.316643,-6.1278 13.555638,-14.03383 -12.250462,-9.931236 -7.484487,-29.61854 14.257389,5.84538 0.416626,-28.228056 4.942954,-13.648067 11.197227,-0.469403 15.133648,2.983701 17.863212,-9.513006 16.142627,6.369886 9.1878,4.907557 18.86962,1.959284 26.47083,12.533119 -13.94638,3.705024 28.32781,10.024722 -18.31168,4.58872 20.33211,13.381386 -11.90382,5.28839 -7.43651,-8.779873 3.58982,12.465219 3.89953,11.013707 -22.5037,-2.117717 -10.944,8.728703 8.92971,5.57869 10.22382,4.97743 -21.90519,8.71787 -16.20768,4.65072 z"
         id="path6334" />
    </g>
  </g>
</svg>
