<?xml version="1.0" encoding="UTF-8" standalone="no"?>
<!-- Created with Inkscape (http://www.inkscape.org/) -->

<svg
   width="500"
   height="320"
   viewBox="0 0 132.29166 84.666662"
   version="1.1"
   id="svg5190"
   sodipodi:docname="logo.svg"
   inkscape:version="1.2.2 (732a01da63, 2022-12-09, custom)"
   xmlns:inkscape="http://www.inkscape.org/namespaces/inkscape"
   xmlns:sodipodi="http://sodipodi.sourceforge.net/DTD/sodipodi-0.dtd"
   xmlns="http://www.w3.org/2000/svg"
   xmlns:svg="http://www.w3.org/2000/svg">
  <sodipodi:namedview
     id="namedview5192"
     pagecolor="#ffffff"
     bordercolor="#000000"
     borderopacity="0.25"
     inkscape:showpageshadow="2"
     inkscape:pageopacity="0.0"
     inkscape:pagecheckerboard="0"
     inkscape:deskcolor="#d1d1d1"
     inkscape:document-units="mm"
     showgrid="false"
     showguides="true"
     inkscape:zoom="2.345761"
     inkscape:cx="270.70106"
     inkscape:cy="183.09623"
     inkscape:window-width="1206"
     inkscape:window-height="960"
     inkscape:window-x="0"
     inkscape:window-y="0"
     inkscape:window-maximized="1"
     inkscape:current-layer="layer1">
    <sodipodi:guide
       position="0.72579547,92.166549"
       orientation="0.70710678,-0.70710678"
       id="guide6092"
       inkscape:locked="false" />
    <sodipodi:guide
       position="22.257728,94.827799"
       orientation="0,-1"
       id="guide6094"
       inkscape:locked="false" />
    <sodipodi:guide
       position="18.991648,59.989616"
       orientation="0,-1"
       id="guide6096"
       inkscape:locked="false" />
    <sodipodi:guide
       position="19.959376,19.707966"
       orientation="0,1"
       id="guide6098"
       inkscape:locked="false"
       inkscape:label=""
       inkscape:color="rgb(0,134,229)" />
    <sodipodi:guide
       position="4.112841,75.110355"
       orientation="0.70710678,-0.70710678"
       id="guide6100"
       inkscape:locked="false" />
    <sodipodi:guide
       position="20.583054,24.788687"
       orientation="1,0"
       id="guide6102"
       inkscape:locked="false" />
    <sodipodi:guide
       position="102.08776,-257.32733"
       orientation="1,0"
       id="guide6104"
       inkscape:locked="false" />
  </sodipodi:namedview>
  <defs
     id="defs5187">
    <inkscape:path-effect
       effect="spiro"
       id="path-effect6112"
       is_visible="true"
       lpeversion="1" />
  </defs>
  <g
     inkscape:label="Layer 1"
     inkscape:groupmode="layer"
     id="layer1">
    <path
       style="fill:#000080;stroke-width:0.279916"
       d="M 77.669563,33.66697 C 77.018481,32.944471 76.315919,32.268372 75.568967,31.645495 72.329931,28.94449 68.234218,27.278421 64.026873,26.98681 c -4.207344,-0.291612 -8.504478,0.798532 -12.044899,3.0903 -3.540421,2.291768 -6.299931,5.77674 -7.685736,9.759996 -1.385804,3.983256 -1.382757,8.440734 0.04162,12.410362 1.424373,3.969628 4.266017,7.420197 7.906657,9.54917 3.640639,2.128973 8.054464,2.913084 12.199317,2.133993 4.144852,-0.779091 7.982455,-3.121712 10.542273,-6.473445 2.559819,-3.351732 3.810605,-7.684408 3.396472,-11.881464 -0.01267,-0.128365 -0.02699,-0.257449 -0.06423,-0.380946 -0.07944,-0.263471 -0.260737,-0.488315 -0.478923,-0.656013 -0.218186,-0.167697 -0.472419,-0.282439 -0.73112,-0.376254 -0.929854,-0.3372 -1.936697,-0.418301 -2.924492,-0.367402 -0.987796,0.0509 -1.963855,0.229985 -2.938222,0.400105 -0.974366,0.170121 -1.954638,0.332072 -2.943614,0.34812 -0.988975,0.01605 -1.99364,-0.118929 -2.897426,-0.520803 -0.194901,-0.08666 -0.385575,-0.185812 -0.590606,-0.244628 -0.319909,-0.09177 -0.668513,-0.07991 -0.981804,0.03239 -0.313291,0.112306 -0.589807,0.324363 -0.780387,0.597206 -0.19058,0.272843 -0.29447,0.605114 -0.294311,0.937926 1.6e-4,0.332812 0.104211,0.664687 0.293225,0.938616 0.228891,0.331721 0.575697,0.572297 0.953703,0.712085 0.378007,0.139788 0.786498,0.18336 1.189342,0.171265 0.805688,-0.02419 1.588828,-0.264666 2.389708,-0.35582 1.37355,-0.156333 2.753005,0.128979 4.1263,0.287533 0.686648,0.07928 1.380047,0.126957 2.069042,0.07168 0.688995,-0.05528 1.375933,-0.216356 1.98866,-0.536257 0.0953,-0.04975 0.1901,-0.103817 0.29462,-0.128966 0.05226,-0.01257 0.106692,-0.01766 0.159998,-0.01075 0.0533,0.0069 0.105489,0.02618 0.14809,0.05895 0.04245,0.03266 0.07443,0.07809 0.09373,0.128051 0.0193,0.04996 0.02617,0.104326 0.02299,0.157792 -0.0064,0.106933 -0.05197,0.208002 -0.108927,0.298726 -0.05696,0.09072 -0.125653,0.173519 -0.185116,0.262621 -0.05946,0.0891 -0.110389,0.186818 -0.12566,0.292846 -0.01959,0.135984 0.02079,0.272946 0.06583,0.40274 0.04504,0.129795 0.09585,0.260996 0.09799,0.398366 0.0029,0.187117 -0.08469,0.363223 -0.182483,0.522779 -0.09779,0.159555 -0.209402,0.314497 -0.263846,0.493542 -0.03851,0.126642 -0.04671,0.260166 -0.05678,0.39215 -0.215753,2.827125 -1.43769,5.564851 -3.387569,7.623286 -1.949879,2.058435 -4.61243,3.425369 -7.419536,3.824545 -2.807105,0.399177 -5.740424,-0.16938 -8.202358,-1.575817 -2.461934,-1.406436 -4.438974,-3.640128 -5.549422,-6.248976 -1.4523,-3.411983 -1.394881,-7.367145 -0.194954,-10.875845 1.199926,-3.508701 3.482997,-6.586012 6.247071,-9.057995 2.750063,-2.459452 6.163447,-4.411255 9.850948,-4.529965 1.84375,-0.05936 3.718323,0.35681 5.300425,1.305437 1.582102,0.948626 2.853879,2.444649 3.415436,4.201803 0.07717,0.241472 0.142368,0.490073 0.269938,0.709139 0.162166,0.278475 0.427085,0.49913 0.735817,0.59149 0.281855,0.08432 0.594947,0.05919 0.859744,-0.06901 0.264797,-0.128198 0.478699,-0.358205 0.587374,-0.631596 0.108674,-0.27339 0.111052,-0.587479 0.0065,-0.862484 -0.104522,-0.275004 -0.314917,-0.508224 -0.577742,-0.640418 z"
       id="path6110"
       inkscape:path-effect="#path-effect6112"
       inkscape:original-d="m 77.669563,33.66697 c 0.291686,-0.734782 -1.470614,-1.341935 -2.100596,-2.021475 -0.629981,-0.679539 1.946511,9.281663 2.813606,13.930227 0.867095,4.648562 -0.04254,-0.253684 -0.06423,-0.380946 -0.02168,-0.127264 -0.875445,-0.846807 -1.210043,-1.032267 -0.334602,-0.185464 -7.733197,0.06587 -11.703754,-0.13998 -3.970557,-0.205847 -0.393459,-0.162806 -0.590606,-0.244628 -0.197151,-0.08182 -1.209311,2.101355 -1.763277,2.506141 -0.553966,0.404784 4.079102,0.2449 4.532753,0.52753 0.453653,0.282626 4.433367,-0.440999 8.184002,-0.177047 3.750632,0.263957 0.402085,-0.05356 0.602708,-0.08076 0.200624,-0.02719 -0.201709,0.760302 -0.302983,1.140036 -0.10127,0.37973 0.109497,0.53435 0.163824,0.801106 0.05432,0.266754 -0.297274,0.677827 -0.446329,1.016321 -0.149058,0.338494 -0.03758,0.261713 -0.05678,0.39215 -0.0192,0.130434 -18.363502,0.0658 -24.558885,3.623038 -6.195383,3.557235 5.467101,-9.33153 6.052117,-19.93384 0.600732,-10.887124 15.291359,-0.853568 18.566809,0.977275 3.275447,1.830843 0.180237,0.473039 0.269938,0.709139 0.0897,0.236097 0.490825,0.394608 0.735817,0.59149 0.244993,0.196885 0.584217,-1.468722 0.875907,-2.203508 z"
       sodipodi:nodetypes="ssssssssssssssssssssss" />
    <path
       style="fill:#000080;stroke-width:0.264583"
       d="m 69.722705,29.625112 1.553097,0.264356 1.715673,35.110952 -3.000886,-0.108376 -0.985141,-21.4587 0.03877,-2.974451 -24.407154,24.5151 c -0.533691,-0.788414 -6.006738,0.926279 -2.702163,0.04141 L 67.717591,38.932675 68.446772,38.374 48.426174,24.571509 l 6.349843,-0.02688 14.318871,12.044524 -0.339259,-11.868287 2.150101,-0.104856 0.440153,5.291534 z"
       id="path6114"
       sodipodi:nodetypes="ccccccccccccccccc" />
    <path
       style="fill:#000080;stroke-width:0.264583"
       d="m 69.239814,36.614256 c -46.159876,-24.409504 -23.079938,-12.204752 0,0 z"
       id="path6240"
       sodipodi:nodetypes="cc" />
    <path
       style="fill:#000080;stroke-width:0.264583"
       d="m 69.368468,36.764499 3.919527,1.371129 -3.94508,2.265096 z"
       id="path6242" />
  </g>
</svg>
